<?xml version="1.0" standalone="no"?>
<!DOCTYPE svg PUBLIC "-//W3C//DTD SVG 20010904//EN"
 "http://www.w3.org/TR/2001/REC-SVG-20010904/DTD/svg10.dtd">
<svg version="1.0" xmlns="http://www.w3.org/2000/svg"
 width="400.000000pt" height="400.000000pt" viewBox="0 0 400.000000 400.000000"
 preserveAspectRatio="xMidYMid meet">
<metadata>
Created by potrace 1.14, written by Peter Selinger 2001-2017
</metadata>
<g transform="translate(0.000000,400.000000) scale(0.100000,-0.100000)"
fill="#000000" stroke="none">
<path d="M0 3560 c0 -38 3 -70 6 -70 3 0 15 5 27 12 12 6 35 14 51 17 l29 6
-50 53 c-27 28 -53 52 -57 52 -3 0 -6 -31 -6 -70z"/>
<path d="M1554 3453 c-19 -20 -34 -32 -34 -26 0 6 -10 13 -21 16 -15 4 -20 11
-16 21 4 10 1 16 -8 16 -8 0 -15 -8 -15 -19 0 -23 -43 -53 -65 -44 -10 3 -21
0 -26 -8 -7 -11 -9 -10 -10 6 l0 20 -9 -20 c-5 -11 -9 -32 -9 -46 -1 -15 -19
-47 -46 -78 -51 -59 -55 -83 -24 -138 35 -63 60 -85 89 -77 66 18 98 20 130 8
19 -7 28 -13 20 -14 -19 -1 68 -39 93 -39 9 -1 17 5 17 12 0 18 -45 38 -65 31
-16 -7 -55 21 -55 39 0 6 3 7 7 4 3 -4 12 -2 20 4 9 9 10 15 3 25 -9 10 -7 11
9 7 23 -6 28 6 9 25 -9 9 -9 12 0 12 7 0 12 12 12 28 1 25 1 26 12 7 21 -36
34 -45 47 -32 8 8 11 4 12 -18 0 -23 5 -16 23 35 12 36 18 69 14 75 -4 5 -8
34 -8 64 0 41 -3 52 -11 44 -18 -18 -39 -3 -39 27 0 16 -4 31 -10 35 -5 3 -7
12 -3 20 9 25 -8 17 -43 -22z m63 -165 c-3 -8 -6 -5 -6 6 -1 11 2 17 5 13 3
-3 4 -12 1 -19z m-50 -30 c-3 -8 -6 -5 -6 6 -1 11 2 17 5 13 3 -3 4 -12 1 -19z"/>
<path d="M2470 3093 c0 -4 5 -15 10 -23 8 -13 10 -13 10 2 0 9 -4 20 -10 23
-5 3 -10 3 -10 -2z"/>
<path d="M2045 3072 c48 -29 63 -33 61 -14 -1 20 -21 30 -61 31 l-30 1 30 -18z"/>
<path d="M1400 3062 c0 -17 45 -30 65 -19 19 10 19 10 0 18 -27 10 -65 11 -65
1z"/>
<path d="M838 2998 c17 -24 33 -53 37 -65 6 -20 4 -22 -32 -16 -21 3 -49 11
-63 18 -14 7 -43 15 -65 18 -22 4 -56 9 -76 12 -31 5 -37 3 -35 -12 1 -13 -5
-17 -19 -15 -49 7 -124 6 -131 -1 -4 -4 8 -21 27 -37 19 -16 45 -38 59 -50 19
-16 20 -19 5 -12 -34 16 -208 23 -246 11 -19 -7 -36 -14 -38 -16 -10 -7 44
-53 63 -53 12 -1 35 -7 51 -16 l30 -14 -40 7 c-79 14 -148 8 -197 -17 l-48
-23 28 -17 c44 -27 229 -87 337 -109 55 -11 114 -25 130 -30 l30 -9 -28 -1
c-16 -1 -26 -5 -22 -11 3 -6 17 -7 29 -4 16 4 25 0 30 -11 5 -13 2 -15 -15
-10 -13 5 -25 2 -30 -6 -6 -10 -13 -6 -30 14 l-21 28 -157 -2 c-288 -3 -401
-24 -401 -74 0 -20 9 -22 103 -34 197 -25 253 -30 347 -36 52 -4 104 -10 115
-15 22 -9 197 -31 230 -29 11 0 67 -3 125 -7 98 -7 102 -8 70 -19 l-35 -12 -3
-82 c-2 -65 2 -92 18 -127 10 -25 22 -60 26 -79 4 -25 10 -32 22 -28 14 4 14
3 3 -5 -12 -9 -10 -19 11 -69 18 -41 30 -57 42 -55 14 3 21 -14 17 -40 0 -4
14 -24 33 -43 23 -26 40 -36 56 -33 15 2 26 -4 34 -17 6 -11 14 -22 18 -25 4
-3 5 -18 3 -33 -5 -23 -1 -27 22 -33 57 -12 62 -15 56 -30 -3 -8 1 -14 10 -14
8 0 20 -6 26 -14 7 -8 22 -11 39 -8 21 4 25 2 15 -8 -9 -10 -7 -17 10 -30 12
-10 31 -20 42 -22 18 -5 18 -6 -5 -16 -24 -11 -23 -11 15 -11 22 0 56 -4 75
-8 l35 -7 -30 -7 c-27 -6 -25 -7 15 -8 33 -1 41 -4 30 -11 -13 -8 -12 -10 3
-10 10 0 25 -7 33 -15 9 -8 11 -15 5 -15 -6 0 -11 -4 -11 -10 0 -5 11 -10 24
-10 43 0 86 12 86 25 0 7 11 13 25 13 l26 0 -22 -16 c-17 -11 -18 -16 -8 -23
20 -13 27 -11 46 11 17 20 70 29 58 10 -3 -5 -16 -10 -28 -10 -17 0 -19 -2 -8
-9 8 -5 27 -3 48 6 43 18 54 10 22 -16 l-24 -20 56 3 c30 1 60 6 67 9 17 12
92 37 92 32 0 -3 -15 -11 -32 -19 -18 -8 -27 -15 -20 -15 7 -1 26 6 41 13 15
8 38 12 50 9 11 -3 27 0 35 6 12 10 13 8 9 -10 l-6 -23 30 22 c33 24 58 28 68
12 9 -15 19 -12 45 12 13 13 33 22 45 20 16 -2 17 -1 5 7 -13 9 -12 12 5 25
11 9 23 16 27 16 3 0 9 8 11 18 4 12 5 11 6 -6 0 -12 -6 -25 -14 -28 -19 -8
-19 -24 0 -24 8 0 15 5 15 10 0 6 8 5 19 -2 11 -7 17 -16 15 -20 -3 -4 2 -8
11 -8 9 0 14 4 11 9 -4 5 7 12 23 16 17 3 28 12 26 18 -3 7 7 21 22 31 l26 19
51 -54 c28 -30 68 -76 89 -102 54 -66 70 -63 61 12 -7 63 1 131 16 131 4 0 33
-21 64 -46 31 -25 61 -42 67 -38 8 5 6 10 -5 16 -9 5 -14 14 -10 19 3 5 -7 31
-23 57 -16 26 -37 64 -48 85 -11 20 -23 37 -26 37 -9 0 -23 50 -20 72 1 9 -5
31 -14 48 -13 26 -19 29 -31 19 -11 -9 -14 -8 -14 4 0 9 8 20 17 25 14 8 15
14 4 40 -9 21 -10 36 -3 49 6 10 10 22 10 26 0 5 3 11 6 14 3 4 6 -8 6 -25 0
-36 19 -44 21 -9 1 12 0 27 -1 32 -6 19 -3 113 3 130 4 9 10 14 14 12 5 -3 6
15 4 39 -2 27 -8 44 -16 44 -7 0 -16 16 -20 36 -3 20 -10 44 -15 53 -5 9 -11
24 -14 35 -5 15 -9 16 -21 6 -21 -17 -29 -6 -15 19 8 17 8 21 -3 21 -8 0 -19
12 -26 27 l-13 27 -19 -24 -19 -25 0 28 c0 17 -5 27 -14 27 -8 0 -21 8 -28 18
-7 10 -22 24 -33 31 -18 11 -17 12 13 7 28 -5 32 -3 32 17 0 17 -2 19 -9 8 -8
-12 -12 -10 -22 12 -11 24 -15 26 -55 20 -35 -5 -44 -3 -44 9 0 28 41 46 79
36 24 -7 31 -12 22 -18 -20 -12 -4 -30 26 -30 19 0 24 4 19 16 -3 9 -6 20 -6
25 0 5 -9 9 -20 9 -17 0 -19 4 -14 28 9 35 13 39 24 22 9 -13 10 -13 10 0 0
13 -68 70 -84 70 -4 0 -2 -9 4 -21 15 -26 7 -34 -18 -18 -12 7 -17 19 -15 30
4 13 -4 24 -26 36 -17 10 -35 31 -41 46 -8 25 -7 30 11 34 17 5 20 11 15 34
-3 16 -1 29 4 29 6 0 10 -5 10 -10 0 -6 12 -22 28 -35 26 -23 26 -24 3 -18
-18 4 -22 2 -19 -8 3 -8 11 -14 19 -15 26 -2 48 -16 54 -34 8 -25 62 -11 57
15 -2 10 2 21 8 25 9 6 8 14 -4 33 -11 16 -13 27 -7 31 12 8 61 -22 61 -37 0
-6 3 -7 7 -3 10 10 16 59 6 53 -4 -3 -9 9 -10 26 -1 17 -9 37 -18 44 -8 7 -10
8 -5 1 14 -17 12 -31 -4 -25 -10 4 -12 -1 -9 -16 5 -18 3 -20 -8 -9 -18 17
-34 15 -19 -3 7 -8 9 -15 4 -15 -28 1 -51 45 -34 65 8 10 6 13 -7 11 -11 -1
-22 13 -34 44 -13 32 -18 38 -18 22 -1 -23 -1 -23 -22 -3 -12 11 -27 17 -35
14 -17 -6 -19 13 -1 21 6 3 0 3 -14 0 -15 -3 -30 -1 -33 5 -4 6 -12 11 -17 11
-6 0 -3 -10 5 -22 19 -27 20 -39 4 -33 -7 3 -28 7 -46 9 -26 3 -32 0 -28 -11
3 -8 6 -19 6 -24 0 -4 7 -6 15 -3 8 3 26 -4 41 -15 23 -18 24 -21 7 -21 -10 0
-24 5 -30 11 -16 16 -32 2 -26 -24 3 -13 1 -17 -4 -11 -4 6 -18 14 -30 18 -19
6 -22 4 -16 -9 5 -15 1 -16 -25 -10 -36 8 -40 1 -14 -29 16 -19 16 -20 0 -7
-10 8 -28 11 -42 7 -28 -7 -46 11 -22 20 9 3 16 14 16 23 0 9 5 22 12 29 7 7
8 12 2 12 -5 0 -15 -5 -22 -12 -14 -14 -64 5 -60 23 3 12 -53 37 -86 38 -15 1
-16 -2 -6 -14 11 -13 8 -15 -14 -15 -14 0 -26 -4 -26 -10 0 -5 -9 -10 -21 -10
-11 0 -27 -7 -35 -15 -17 -17 -39 -21 -29 -5 3 6 1 10 -4 10 -6 0 -11 -11 -11
-24 0 -13 -7 -27 -16 -30 -22 -8 -26 -8 -19 3 3 5 1 13 -5 16 -6 4 -9 1 -8 -7
2 -7 -3 -12 -11 -10 -12 3 -12 0 -2 -12 7 -8 10 -20 7 -25 -8 -12 -71 23 -90
50 -7 10 -30 26 -51 35 -31 13 -39 13 -46 2 -16 -25 -9 -35 29 -42 20 -3 51
-17 67 -30 30 -24 30 -25 13 -53 -15 -25 -22 -28 -75 -30 -58 -1 -58 -1 -22
10 l37 12 -23 18 c-13 9 -37 17 -54 17 -29 0 -29 -1 -21 -32 l10 -33 -20 25
c-29 37 -25 57 13 66 28 6 29 8 12 15 -27 10 -87 11 -103 1 -13 -9 -7 -36 12
-59 36 -41 36 -40 -14 -35 -29 3 -50 0 -54 -7 -9 -15 -63 -14 -72 1 -5 8 -2 9
11 4 10 -3 27 0 40 8 13 9 32 12 46 9 24 -7 24 -6 6 18 -35 49 -41 67 -26 85
11 13 25 15 67 11 29 -3 60 -11 68 -18 18 -15 32 -3 16 13 -7 7 -12 26 -12 43
-1 20 -9 36 -26 48 -29 22 -44 16 -23 -9 13 -16 11 -16 -19 0 -33 17 -62 13
-32 -4 8 -5 24 -16 35 -25 l20 -17 -20 8 c-11 5 -57 10 -102 12 -91 4 -96 0
-68 -54 8 -15 12 -30 9 -33 -9 -9 -73 69 -68 83 7 19 52 38 104 45 44 6 45 7
21 20 -33 18 -177 21 -173 4 1 -8 -8 -13 -22 -13 -29 0 -44 -19 -25 -31 11 -7
10 -9 -4 -9 -10 0 -28 -5 -40 -12 -21 -11 -21 -11 -2 -18 17 -6 10 -12 -36
-34 -31 -14 -61 -26 -67 -26 -6 0 -9 -6 -6 -13 6 -17 -32 -57 -54 -57 -17 0
-72 68 -72 88 0 6 -3 12 -7 14 -17 7 -53 69 -47 80 5 7 3 8 -6 3 -8 -5 -11 -3
-8 6 2 7 -6 19 -20 26 -36 19 -36 17 -4 -29z m1645 -138 c-7 -28 -13 -25 -13
6 0 14 4 23 9 20 5 -3 7 -15 4 -26z m-1544 -26 c39 -38 33 -77 -14 -82 -16 -2
-31 -7 -33 -11 -3 -10 -72 20 -72 31 0 4 7 8 15 8 20 0 19 16 -1 24 -13 5 -14
9 -4 21 7 8 16 13 20 10 4 -3 10 4 13 15 7 28 38 21 76 -16z m1486 27 c3 -5 1
-12 -5 -16 -5 -3 -10 1 -10 9 0 18 6 21 15 7z m-1095 -11 c19 -12 13 -16 -30
-24 -26 -4 -30 -3 -15 3 14 7 15 10 5 10 -13 1 -13 2 0 11 19 12 21 12 40 0z
m1074 -16 c3 -8 2 -12 -4 -9 -6 3 -10 10 -10 16 0 14 7 11 14 -7z m-1611 -65
c30 -17 67 -54 46 -46 -13 4 -16 1 -11 -15 4 -18 2 -20 -14 -14 -10 5 -35 13
-54 18 -43 12 -68 33 -27 23 24 -6 27 -5 27 19 0 29 3 31 33 15z m1771 -15 c3
-8 2 -12 -4 -9 -6 3 -10 10 -10 16 0 14 7 11 14 -7z m-1904 -115 c10 -6 5 -7
-15 -3 -16 4 -34 11 -40 16 -11 12 31 1 55 -13z m1705 11 c3 -6 -1 -7 -9 -4
-18 7 -21 14 -7 14 6 0 13 -4 16 -10z m51 -41 c3 -6 1 -15 -7 -19 -10 -7 -10
-11 1 -24 11 -14 10 -16 -5 -10 -14 6 -16 4 -10 -6 5 -9 4 -11 -4 -6 -7 4 -9
16 -5 28 4 13 0 24 -13 33 -17 13 -16 14 9 15 15 0 30 -5 34 -11z m-128 -345
c-4 -3 -12 5 -18 18 -12 22 -12 22 6 6 10 -10 15 -20 12 -24z m42 1 c0 -5 -5
-3 -10 5 -5 8 -10 20 -10 25 0 6 5 3 10 -5 5 -8 10 -19 10 -25z m-840 -36 c8
-13 7 -19 -1 -19 -6 0 -13 9 -16 20 -3 11 -10 17 -16 13 -6 -3 -7 -1 -3 6 9
14 22 7 36 -20z m260 11 c11 -6 28 -6 42 -1 17 6 27 4 40 -11 14 -16 19 -17
37 -6 11 7 24 9 28 4 4 -4 -1 -12 -11 -18 -17 -9 -16 -12 13 -25 22 -11 28
-19 22 -27 -6 -7 -6 -17 -1 -26 6 -8 10 -21 10 -29 0 -11 -3 -11 -15 -1 -17
14 -31 8 -20 -9 8 -14 45 -14 45 -1 0 6 5 10 10 10 5 0 9 -6 7 -12 -1 -7 9
-14 23 -16 28 -4 76 -51 72 -69 -2 -7 1 -13 5 -13 5 0 14 -10 22 -21 11 -18
11 -23 -1 -30 -10 -7 -9 -9 6 -9 11 0 16 -5 13 -14 -3 -8 1 -17 9 -20 8 -3 19
-17 24 -31 7 -18 14 -23 26 -18 11 4 15 2 11 -4 -3 -5 7 -23 23 -38 16 -15 27
-32 24 -37 -3 -4 7 -8 23 -8 24 -1 25 -2 10 -11 -12 -7 -23 -6 -38 5 -23 16
-49 11 -49 -9 0 -15 -48 -34 -68 -27 -10 3 -10 7 0 19 10 12 9 14 -4 11 -9 -1
-16 1 -15 5 4 18 -48 37 -84 31 -22 -3 -40 -1 -44 6 -4 6 -16 8 -27 4 -17 -5
-19 -3 -13 15 8 27 -25 56 -99 88 -50 22 -50 22 -18 23 23 0 32 4 29 13 -2 6
-11 11 -21 9 -9 -2 -16 4 -16 14 0 16 -47 64 -63 64 -5 0 -5 5 -2 11 4 6 7 26
7 45 0 35 0 35 25 19 14 -9 27 -14 31 -11 3 3 0 6 -6 6 -7 0 -12 5 -12 10 0 6
18 10 40 10 44 0 56 19 13 21 -63 3 -97 10 -113 24 -9 8 -20 12 -23 8 -15 -14
-6 5 11 25 l18 21 33 -20 c45 -27 51 -16 12 20 -41 39 -42 53 -1 31z m-223
-56 c-3 -4 0 -19 8 -35 19 -36 19 -49 0 -49 -10 0 -15 10 -15 29 0 16 -3 36
-6 45 -4 10 -1 16 7 16 7 0 10 -3 6 -6z m118 -14 c-3 -5 -11 -10 -16 -10 -6 0
-7 5 -4 10 3 6 11 10 16 10 6 0 7 -4 4 -10z m25 -60 c18 -17 30 -33 27 -37
-10 -10 -54 24 -60 46 -7 27 -5 27 33 -9z m714 -9 c3 -5 -5 -11 -18 -13 -17
-4 -23 -1 -19 9 6 15 29 18 37 4z m-187 -357 c-3 -3 -12 -4 -19 -1 -8 3 -5 6
6 6 11 1 17 -2 13 -5z m163 -244 c0 -5 -4 -10 -10 -10 -5 0 -10 5 -10 10 0 6
5 10 10 10 6 0 10 -4 10 -10z m342 -50 c4 -27 3 -29 -10 -16 -8 8 -12 22 -9
30 9 23 14 20 19 -14z m-975 4 c-3 -3 -12 -4 -19 -1 -8 3 -5 6 6 6 11 1 17 -2
13 -5z m353 -18 c0 -2 -7 -7 -16 -10 -8 -3 -12 -2 -9 4 6 10 25 14 25 6z"/>
<path d="M1782 2219 c2 -7 10 -15 17 -17 8 -3 12 1 9 9 -2 7 -10 15 -17 17 -8
3 -12 -1 -9 -9z"/>
<path d="M1832 2188 c5 -15 28 -23 28 -10 0 5 -7 13 -16 16 -10 4 -14 1 -12
-6z"/>
<path d="M1750 2035 c7 -8 17 -15 22 -15 5 0 3 7 -6 15 -8 8 -18 15 -22 15 -3
0 -1 -7 6 -15z"/>
<path d="M1663 3000 c15 -12 31 -19 37 -15 5 3 7 0 4 -8 -3 -8 2 -17 12 -21
22 -8 33 2 14 14 -8 6 -11 10 -5 10 17 0 -29 27 -60 34 l-30 8 28 -22z"/>
<path d="M2231 3013 c-2 -20 11 -43 20 -37 5 3 9 10 9 15 0 6 -4 8 -9 4 -5 -3
-12 3 -14 12 -3 10 -5 13 -6 6z"/>
<path d="M2796 2997 c3 -10 9 -15 12 -12 3 3 0 11 -7 18 -10 9 -11 8 -5 -6z"/>
<path d="M1590 2990 c20 -13 43 -13 35 0 -3 6 -16 10 -28 10 -18 0 -19 -2 -7
-10z"/>
<path d="M2120 2996 c0 -2 7 -7 16 -10 8 -3 12 -2 9 4 -6 10 -25 14 -25 6z"/>
<path d="M2160 2983 c1 -18 19 -35 31 -31 8 3 22 -1 32 -10 9 -8 17 -11 17 -5
0 11 -55 53 -70 53 -5 0 -10 -3 -10 -7z"/>
<path d="M966 2947 c3 -10 9 -15 12 -12 3 3 0 11 -7 18 -10 9 -11 8 -5 -6z"/>
<path d="M2576 2943 c-6 -14 -5 -15 5 -6 7 7 10 15 7 18 -3 3 -9 -2 -12 -12z"/>
<path d="M2659 2922 c6 -12 16 -24 22 -28 8 -4 8 -1 0 14 -6 12 -16 24 -22 28
-8 4 -8 1 0 -14z"/>
<path d="M2590 2920 c0 -5 5 -10 11 -10 5 0 7 5 4 10 -3 6 -8 10 -11 10 -2 0
-4 -4 -4 -10z"/>
<path d="M1000 2902 c6 -13 14 -21 18 -18 3 4 -2 14 -12 24 -18 16 -18 16 -6
-6z"/>
<path d="M1675 2847 c12 -38 64 -63 80 -38 5 10 -36 43 -68 54 -15 6 -17 3
-12 -16z"/>
<path d="M2720 2837 c0 -31 14 -49 32 -42 13 5 13 11 4 30 -15 33 -36 40 -36
12z"/>
<path d="M2856 2713 c4 -16 12 -31 18 -35 16 -11 20 30 6 48 -20 23 -31 16
-24 -13z"/>
<path d="M2637 2711 c-4 -17 -3 -21 5 -13 5 5 8 16 6 23 -3 8 -7 3 -11 -10z"/>
<path d="M2649 2498 c-5 -21 -7 -50 -3 -40 3 6 12 12 21 12 17 0 13 22 -5 28
-7 2 -12 2 -13 0z"/>
<path d="M2670 2450 c-8 -5 -12 -12 -9 -15 4 -3 12 1 19 10 14 17 11 19 -10 5z"/>
<path d="M3114 2238 c-5 -7 -10 -21 -11 -32 -2 -14 1 -17 14 -12 10 3 5 -5
-12 -19 -16 -14 -25 -25 -19 -25 7 0 14 -10 17 -22 4 -12 9 -19 13 -15 4 3 20
-3 36 -14 16 -12 34 -22 41 -23 30 -5 64 -20 92 -40 17 -11 39 -22 50 -23 50
-5 173 -23 198 -29 44 -10 321 42 415 78 72 28 58 35 -18 9 -34 -12 -83 -24
-108 -26 -44 -5 -45 -4 -14 5 17 6 32 12 32 14 0 1 -18 3 -40 4 -28 1 -40 -2
-40 -12 0 -23 -72 -28 -147 -10 -72 17 -100 22 -175 30 -27 3 -46 10 -43 14 3
4 -2 11 -11 14 -8 3 -12 2 -9 -4 15 -24 -14 -7 -43 26 -20 23 -38 34 -47 30
-20 -7 -124 49 -152 81 -9 12 -13 12 -19 1z"/>
<path d="M3295 2200 c3 -5 10 -10 16 -10 5 0 9 5 9 10 0 6 -7 10 -16 10 -8 0
-12 -4 -9 -10z"/>
<path d="M3452 2145 c-11 -12 -10 -15 3 -15 8 0 15 7 15 15 0 18 -2 18 -18 0z"/>
<path d="M3780 2150 c0 -6 -8 -10 -17 -10 -14 0 -15 -2 -4 -9 13 -8 -44 -32
-109 -45 -14 -3 4 -3 40 0 79 7 132 27 124 48 -7 17 -34 30 -34 16z"/>
<path d="M2985 1950 c3 -6 -1 -13 -10 -16 -9 -4 -14 -13 -11 -20 3 -7 -1 -29
-9 -48 -17 -41 -18 -46 -6 -46 14 0 51 83 51 113 0 15 -5 27 -11 27 -5 0 -7
-5 -4 -10z"/>
<path d="M1130 1658 c0 -15 -63 -58 -85 -58 -25 0 -55 -38 -55 -69 0 -15 9
-40 20 -54 11 -14 20 -29 20 -34 0 -5 20 -72 44 -149 25 -76 51 -166 59 -199
26 -105 -5 -221 -54 -208 -15 4 -20 3 -15 -5 10 -16 -5 -15 -29 1 -28 19 -85
14 -101 -8 -8 -11 -14 -14 -14 -7 0 7 -8 5 -20 -6 -11 -9 -39 -20 -63 -23 -42
-6 -42 -6 13 -8 84 -3 40 -18 -70 -23 -52 -3 -84 -2 -70 1 24 7 23 8 -10 15
-35 8 -35 8 -10 18 14 6 49 10 78 9 34 -1 52 2 48 8 -4 6 6 8 28 4 18 -3 36
-1 39 3 8 14 -77 14 -86 1 -5 -7 -7 -3 -4 11 5 22 -3 29 -17 15 -12 -13 -86
-11 -86 2 0 20 -45 38 -79 30 -29 -6 -61 -37 -61 -60 0 -6 19 -11 41 -11 37
-1 66 -20 53 -33 -3 -3 -9 1 -14 9 -6 10 -12 11 -22 2 -8 -6 -18 -8 -24 -3 -5
5 -34 5 -64 1 -88 -13 -130 -12 -124 3 8 22 -21 39 -52 31 -27 -7 -27 -7 -6
-15 34 -13 26 -29 -15 -29 -29 0 -34 3 -25 12 18 18 15 38 -5 38 -16 0 -16 -2
-3 -10 13 -9 12 -12 -4 -25 -11 -8 -14 -15 -8 -15 7 0 12 -4 12 -9 0 -5 -12
-8 -26 -8 -18 0 -22 2 -13 8 8 5 11 9 7 9 -4 0 -3 11 2 25 8 21 7 25 -8 25
-25 0 -61 -30 -44 -36 24 -11 12 -24 -22 -24 -24 0 -35 5 -38 18 -4 15 -17 18
-77 20 -70 3 -72 2 -69 -20 2 -16 13 -26 36 -33 33 -10 44 -25 16 -25 -26 0
-11 -33 19 -43 20 -6 36 -6 50 2 21 11 63 10 82 -1 6 -3 26 -6 45 -6 24 -1 30
2 20 8 -8 6 -10 10 -4 10 5 0 18 -6 28 -13 16 -12 15 -14 -11 -26 -54 -26 -58
-29 -55 -51 2 -21 -1 -22 -37 -17 -22 2 -44 0 -49 -5 -6 -6 -25 -12 -44 -13
-48 -4 -48 -4 -48 -15 0 -14 38 -12 85 4 45 16 58 13 30 -7 -16 -12 -14 -14
20 -15 21 -1 40 -4 43 -6 10 -11 -8 -36 -27 -36 -18 0 -35 -23 -24 -34 3 -3
17 -3 32 -1 67 10 152 14 147 6 -3 -4 -42 -11 -87 -14 -45 -4 -87 -11 -93 -15
-16 -13 -169 -25 -162 -13 4 5 2 12 -4 16 -7 4 -10 -76 -10 -239 l0 -246 2000
0 2000 0 0 141 c0 122 -2 140 -15 135 -12 -4 -14 0 -10 22 3 15 2 20 -2 12 -3
-8 -13 -21 -21 -29 -12 -12 -15 -12 -23 0 -6 10 -9 10 -9 2 0 -8 -15 -13 -40
-13 -22 0 -40 -4 -40 -9 0 -6 -12 -6 -31 1 -16 6 -32 8 -35 5 -10 -9 5 -41 31
-69 14 -15 25 -32 25 -37 0 -6 9 -15 21 -21 11 -7 19 -14 16 -16 -11 -11 -56
10 -92 42 -21 19 -42 34 -47 34 -4 0 -14 16 -23 36 -8 19 -19 33 -25 29 -5 -3
-10 -1 -10 4 0 7 -33 11 -90 11 -53 0 -90 -4 -90 -10 0 -5 25 -10 57 -10 31 0
54 -3 50 -6 -10 -11 -315 -13 -416 -4 -52 5 -100 6 -105 2 -15 -9 -126 -9
-126 1 0 4 -13 7 -30 7 -16 0 -30 -5 -30 -11 0 -8 -4 -8 -12 -1 -7 5 -35 9
-61 8 -29 -1 -53 4 -59 11 -6 7 -32 13 -60 13 -43 0 -49 3 -44 17 6 15 -6 15
-136 8 -184 -10 -187 -10 -206 9 -14 14 -13 16 9 25 l24 9 -25 5 c-37 8 -211
31 -242 31 -15 1 -33 7 -39 13 -17 17 -30 17 -26 1 3 -16 -42 -11 -63 6 -34
28 -43 30 -37 7 4 -18 2 -21 -11 -16 -40 16 -84 18 -93 4 -5 -8 -9 -9 -9 -3 0
7 -9 14 -21 17 -14 4 -19 2 -16 -7 3 -7 1 -19 -4 -27 -6 -11 -9 -8 -9 9 0 20
-4 23 -33 21 -18 -2 -38 0 -45 5 -18 11 -34 -4 -29 -26 5 -19 5 -19 -14 -2
-13 12 -18 26 -15 40 4 13 1 24 -7 27 -9 3 -9 9 0 25 7 12 16 39 19 62 6 35
10 40 32 40 25 0 25 1 7 14 -18 13 -16 15 27 21 26 4 57 16 69 26 20 17 39 23
61 20 3 0 28 7 55 15 53 17 320 28 329 13 17 -28 140 5 194 51 l35 30 -55 1
-55 2 52 6 c28 4 55 10 59 14 9 8 -704 9 -747 0 -37 -7 -37 -20 -1 -26 26 -4
26 -4 2 -6 -16 0 -29 -10 -35 -23 -6 -13 -20 -24 -32 -26 -19 -3 -21 -9 -18
-46 3 -49 0 -55 -36 -78 -20 -13 -28 -28 -33 -63 -4 -26 -14 -49 -22 -52 -8
-3 -13 -10 -12 -17 3 -16 -25 -56 -40 -56 -7 0 -11 -4 -8 -9 3 -5 -1 -12 -10
-15 -21 -8 -31 -7 -18 2 16 11 57 82 47 82 -17 0 -53 -31 -53 -46 0 -8 -7 -14
-15 -14 -9 0 -12 6 -9 15 4 8 1 15 -5 15 -6 0 -11 -7 -11 -15 0 -19 -27 -19
-47 0 -18 19 -39 9 -22 -11 14 -18 -3 -19 -33 -3 -11 6 -31 13 -45 15 -14 3
-31 6 -37 7 -6 1 -12 -8 -14 -21 -2 -12 -8 -20 -13 -16 -5 3 -7 20 -3 39 3 19
1 35 -5 39 -13 8 10 36 28 36 6 0 11 4 11 9 0 5 6 11 13 14 6 2 2 2 -10 0 -19
-3 -23 2 -24 22 -1 14 -2 30 -3 37 -1 7 10 18 24 25 14 7 21 13 15 13 -16 0
66 70 107 91 25 13 58 19 98 19 40 0 66 5 76 14 7 8 22 12 32 9 12 -3 22 2 25
11 4 9 2 16 -3 16 -6 0 -10 5 -10 11 0 5 8 9 18 8 37 -4 122 14 115 25 -4 6
-1 6 9 -1 8 -7 18 -10 21 -7 3 4 164 6 356 5 193 -1 366 1 386 5 28 5 35 11
35 30 0 13 -3 23 -7 22 -16 -4 -73 14 -73 23 0 12 13 11 60 -3 22 -7 40 -19
40 -25 0 -9 17 -13 53 -13 37 0 48 3 37 10 -11 7 -4 10 25 10 23 0 46 5 51 10
12 12 47 2 38 -11 -3 -5 2 -9 10 -9 8 0 18 5 22 12 4 7 3 8 -4 4 -7 -4 -12 -2
-12 4 0 6 10 11 23 10 45 -4 67 0 65 13 -2 7 10 13 30 15 17 2 32 0 32 -5 0
-10 153 -3 225 11 27 5 27 5 5 -3 -23 -8 -23 -9 -4 -10 12 -1 27 6 34 14 8 10
32 15 69 16 l56 1 -45 10 c-25 5 -49 14 -54 19 -6 5 -18 9 -28 9 -21 0 -23 11
-6 28 16 16 -5 16 -35 1 -14 -8 -22 -8 -24 -2 -3 7 -25 6 -66 -3 -75 -15 -146
-19 -170 -9 -11 5 -25 1 -37 -10 -13 -12 -20 -14 -20 -6 0 8 -7 10 -21 6 -13
-5 -25 -2 -29 6 -7 10 -14 9 -35 -5 -18 -12 -41 -17 -65 -14 -21 2 -36 0 -34
-4 3 -5 -46 -9 -108 -9 -107 -2 -167 -4 -196 -7 -25 -4 0 -22 29 -22 20 0 28
-4 23 -11 -4 -8 1 -9 17 -5 16 5 19 4 9 -2 -8 -5 -34 -7 -57 -4 -41 4 -49 13
-44 45 0 4 -4 7 -9 7 -6 0 -10 -4 -10 -9 0 -4 -16 -7 -36 -6 -19 1 -37 -2 -40
-6 -2 -5 -12 -5 -21 -2 -11 4 -14 3 -9 -5 4 -7 3 -12 -3 -12 -5 0 -14 6 -18
14 -9 16 -143 17 -156 1 -6 -6 -10 -6 -14 3 -2 6 -14 12 -24 12 -11 0 -17 -4
-14 -10 8 -13 -11 -13 -36 1 -33 17 -46 4 -14 -15 27 -15 27 -16 5 -10 -14 3
-50 22 -80 42 -115 75 -188 141 -255 234 -37 51 -76 104 -86 118 -10 14 -33
52 -50 85 -17 33 -36 63 -41 66 -5 3 -10 10 -11 15 0 5 -12 18 -25 28 -22 18
-27 18 -51 5 -42 -24 -39 -55 11 -102 24 -23 65 -71 92 -107 27 -36 75 -94
107 -131 98 -112 119 -148 115 -205 -2 -47 -4 -49 -33 -50 -17 -1 -39 -4 -49
-8 -9 -4 -20 -2 -24 3 -3 6 -16 8 -28 4 -12 -3 -19 -9 -16 -14 3 -5 1 -9 -5
-9 -5 0 -13 5 -16 10 -3 6 -16 8 -29 4 -12 -3 -34 -1 -48 5 -19 7 -28 7 -31
-2 -5 -13 -38 17 -76 71 -52 73 -135 464 -112 525 6 15 18 27 28 27 14 0 15 2
5 9 -10 6 -3 10 22 15 40 8 49 26 14 27 l-23 0 23 10 c24 9 25 37 2 31 -7 -2
-19 6 -27 18 -16 22 -33 27 -33 8z m1929 -697 c-15 -5 -22 6 -14 19 6 9 10 9
16 -1 5 -8 4 -15 -2 -18z m-285 -33 c-9 -14 -23 2 -17 18 4 12 8 13 14 3 4 -7
5 -17 3 -21z m-594 -20 c0 -6 -10 -8 -22 -4 -13 3 -36 6 -53 7 -26 2 -25 3 10
8 45 8 65 4 65 -11z m-791 -17 c9 -6 6 -8 -13 -8 -14 0 -23 3 -20 8 7 11 15
11 33 0z m847 -22 c8 -14 -10 -11 -32 6 -18 13 -18 14 4 8 12 -3 25 -9 28 -14z
m304 17 c0 -2 -7 -7 -16 -10 -8 -3 -12 -2 -9 4 6 10 25 14 25 6z m-915 -45
c-3 -5 5 -11 17 -13 19 -3 17 -5 -9 -9 -26 -4 -31 -2 -30 13 1 10 7 18 15 18
7 0 11 -4 7 -9z m-962 -68 c-7 -2 -19 -2 -25 0 -7 3 -2 5 12 5 14 0 19 -2 13
-5z m142 -13 c3 -5 29 -8 57 -5 42 3 56 0 83 -21 35 -26 56 -30 87 -13 29 15
61 4 79 -28 16 -27 35 -117 30 -138 -2 -5 -5 -25 -7 -44 -5 -38 -40 -73 -66
-65 -21 6 -24 -6 -6 -24 9 -9 6 -12 -13 -12 -14 0 -30 -5 -36 -11 -8 -8 -48
-8 -150 0 -76 7 -176 11 -223 10 -120 -3 -160 0 -160 11 0 5 12 13 28 16 15 4
30 12 34 17 3 6 14 12 24 13 25 4 62 13 109 27 38 11 34 12 -75 18 l-115 6
125 1 c184 1 190 1 190 11 0 11 -66 23 -155 28 -91 5 -94 5 -134 -3 -24 -5
-32 -3 -27 5 5 7 -1 11 -16 11 -16 0 -19 -3 -10 -9 19 -12 -112 -20 -173 -11
-51 7 -39 11 40 14 17 1 30 6 30 11 0 6 -8 10 -17 9 -10 0 -18 3 -18 8 0 4 6
8 13 9 6 0 3 4 -8 9 -16 7 -13 9 16 9 63 2 98 12 92 27 -3 8 0 14 6 14 6 0 11
4 11 8 0 13 -48 32 -81 32 -22 0 -32 6 -38 23 -13 32 1 40 61 33 29 -3 64 -6
77 -6 12 0 28 -3 35 -7 16 -11 105 -10 99 1 -4 5 19 6 53 2 37 -4 65 -2 74 5
13 10 13 10 0 6 -8 -2 -24 -1 -35 4 -13 5 1 8 42 8 34 1 65 -3 68 -9z m1503 3
c-10 -2 -28 -2 -40 0 -13 2 -5 4 17 4 22 1 32 -1 23 -4z m-1271 -19 c-3 -3
-12 -4 -19 -1 -8 3 -5 6 6 6 11 1 17 -2 13 -5z m661 -111 c-10 -2 -28 -2 -40
0 -13 2 -5 4 17 4 22 1 32 -1 23 -4z m-1398 -13 c0 -5 -7 -10 -15 -10 -8 0
-15 5 -15 10 0 6 7 10 15 10 8 0 15 -4 15 -10z m143 -107 c-7 -2 -21 -2 -30 0
-10 3 -4 5 12 5 17 0 24 -2 18 -5z m-216 -49 c-3 -3 -12 -4 -19 -1 -8 3 -5 6
6 6 11 1 17 -2 13 -5z m268 -14 c-11 -5 -27 -9 -35 -9 -9 0 -8 4 5 9 11 5 27
9 35 9 9 0 8 -4 -5 -9z m-80 -10 c-11 -5 -31 -9 -45 -9 -20 -1 -22 1 -10 9 8
5 29 9 45 9 26 0 27 -2 10 -9z m1170 0 c-3 -5 1 -20 9 -32 19 -27 21 -49 3
-23 -8 10 -19 15 -25 11 -13 -8 -14 -1 -6 32 4 12 11 22 16 22 5 0 6 -4 3 -10z
m-764 -58 c-7 -2 -18 1 -23 6 -8 8 -4 9 13 5 13 -4 18 -8 10 -11z m444 8 c3
-5 -1 -10 -9 -10 -9 0 -16 5 -16 10 0 6 4 10 9 10 6 0 13 -4 16 -10z m585 6
c0 -3 -4 -8 -10 -11 -5 -3 -10 -1 -10 4 0 6 5 11 10 11 6 0 10 -2 10 -4z m110
-16 c0 -5 -4 -10 -10 -10 -5 0 -10 5 -10 10 0 6 5 10 10 10 6 0 10 -4 10 -10z
m-510 -99 c20 -9 11 -10 -46 -6 -104 9 -151 26 -54 21 41 -3 86 -9 100 -15z
m1185 10 c-11 -10 -83 -16 -130 -11 -26 3 -24 4 15 10 70 11 125 11 115 1z
m-1595 -22 c0 -5 -13 -9 -29 -9 -47 0 -44 -15 7 -44 26 -15 38 -24 27 -20 -57
20 -115 27 -137 16 -37 -18 -113 -20 -113 -2 0 10 16 17 50 23 28 4 54 12 60
18 5 5 17 9 26 9 9 0 29 6 43 14 28 14 66 11 66 -5z m107 15 c-3 -3 -12 -4
-19 -1 -8 3 -5 6 6 6 11 1 17 -2 13 -5z m1203 -14 c0 -5 -15 -10 -32 -9 -28 0
-30 2 -13 9 28 12 45 12 45 0z m98 3 c-10 -2 -26 -2 -35 0 -10 3 -2 5 17 5 19
0 27 -2 18 -5z m175 -10 c-7 -2 -21 -2 -30 0 -10 3 -4 5 12 5 17 0 24 -2 18
-5z m-1343 -12 c0 -12 63 -20 76 -10 7 6 23 5 40 -2 27 -10 27 -12 9 -19 -31
-11 -148 -5 -153 8 -2 7 -17 12 -32 12 -16 0 -32 5 -35 10 -4 6 13 10 44 10
28 0 51 -4 51 -9z m2351 -8 c-11 -5 -11 -7 0 -14 10 -6 8 -9 -8 -9 -23 0 -30
10 -16 23 3 4 13 7 22 6 12 0 13 -2 2 -6z m199 -13 c8 -5 11 -12 7 -16 -4 -4
-15 0 -24 9 -18 18 -8 23 17 7z m-1941 -20 c69 -11 127 -23 130 -25 14 -15
-18 -15 -100 -1 -92 16 -201 22 -135 7 16 -3 31 -12 34 -20 3 -10 -2 -11 -19
-5 -13 4 -42 7 -64 6 -22 -1 -73 5 -113 14 -40 9 -85 13 -100 9 -18 -4 -24 -3
-17 4 6 5 44 11 85 12 41 1 84 6 95 10 32 12 73 10 204 -11z m1498 14 c-3 -3
-12 -4 -19 -1 -8 3 -5 6 6 6 11 1 17 -2 13 -5z m-2610 -70 c-3 -3 -12 -4 -19
-1 -8 3 -5 6 6 6 11 1 17 -2 13 -5z m958 -14 c3 -5 1 -10 -4 -10 -6 0 -11 5
-11 10 0 6 2 10 4 10 3 0 8 -4 11 -10z m2215 0 c12 -8 9 -10 -12 -10 -16 0
-28 5 -28 10 0 13 20 13 40 0z m-3340 -54 c0 -2 -13 -9 -30 -15 -16 -5 -30 -6
-30 -1 0 7 10 11 53 19 4 0 7 -1 7 -3z m-73 -32 c-3 -3 -12 -4 -19 -1 -8 3 -5
6 6 6 11 1 17 -2 13 -5z"/>
<path d="M768 753 c6 -2 18 -2 25 0 6 3 1 5 -13 5 -14 0 -19 -2 -12 -5z"/>
<path d="M460 700 c0 -5 5 -10 10 -10 6 0 10 5 10 10 0 6 -4 10 -10 10 -5 0
-10 -4 -10 -10z"/>
<path d="M506 691 c-4 -7 -5 -15 -2 -18 9 -9 19 4 14 18 -4 11 -6 11 -12 0z"/>
<path d="M1088 653 c6 -2 18 -2 25 0 6 3 1 5 -13 5 -14 0 -19 -2 -12 -5z"/>
<path d="M515 640 c-3 -5 1 -10 9 -10 9 0 16 5 16 10 0 6 -4 10 -9 10 -6 0
-13 -4 -16 -10z"/>
<path d="M608 643 c6 -2 18 -2 25 0 6 3 1 5 -13 5 -14 0 -19 -2 -12 -5z"/>
<path d="M375 610 c-29 -7 -28 -8 10 -8 22 -1 58 3 80 7 l40 9 -50 0 c-27 0
-63 -4 -80 -8z"/>
<path d="M560 606 c0 -8 -6 -17 -12 -19 -7 -3 12 -5 42 -5 42 1 46 2 17 5 -29
3 -37 8 -33 19 3 8 1 14 -4 14 -6 0 -10 -6 -10 -14z"/>
<path d="M396 581 c-4 -5 12 -7 36 -4 57 8 61 13 10 13 -22 0 -43 -4 -46 -9z"/>
<path d="M895 570 c3 -5 10 -10 16 -10 5 0 9 5 9 10 0 6 -7 10 -16 10 -8 0
-12 -4 -9 -10z"/>
<path d="M946 545 c-3 -8 -1 -15 4 -15 6 0 10 7 10 15 0 8 -2 15 -4 15 -2 0
-6 -7 -10 -15z"/>
<path d="M810 530 c0 -5 7 -10 15 -10 8 0 15 5 15 10 0 6 -7 10 -15 10 -8 0
-15 -4 -15 -10z"/>
<path d="M916 465 c4 -8 10 -15 15 -15 5 0 9 7 9 15 0 8 -7 15 -15 15 -9 0
-12 -6 -9 -15z"/>
<path d="M880 426 c0 -9 5 -16 10 -16 6 0 10 4 10 9 0 6 -4 13 -10 16 -5 3
-10 -1 -10 -9z"/>
<path d="M992 433 c-15 -6 -6 -23 14 -23 8 0 14 7 14 15 0 15 -6 17 -28 8z"/>
<path d="M2108 1383 c7 -3 16 -2 19 1 4 3 -2 6 -13 5 -11 0 -14 -3 -6 -6z"/>
<path d="M1810 1360 c-12 -8 -10 -10 8 -10 13 0 20 4 17 10 -7 12 -6 12 -25 0z"/>
<path d="M3980 1210 c0 -5 5 -10 11 -10 5 0 7 5 4 10 -3 6 -8 10 -11 10 -2 0
-4 -4 -4 -10z"/>
<path d="M3978 1123 c7 -3 16 -2 19 1 4 3 -2 6 -13 5 -11 0 -14 -3 -6 -6z"/>
<path d="M3420 1055 c-14 -7 -38 -11 -57 -8 -18 3 -39 0 -47 -6 -8 -7 -25 -9
-42 -5 -25 6 -27 5 -21 -17 4 -13 7 -27 7 -31 0 -5 17 -8 38 -8 21 0 42 -3 46
-7 19 -20 144 0 191 31 11 7 33 16 48 20 15 3 25 11 22 16 -3 6 5 10 19 10 14
0 26 4 26 8 0 14 -203 12 -230 -3z m-80 -25 c0 -5 -2 -10 -4 -10 -3 0 -8 5
-11 10 -3 6 -1 10 4 10 6 0 11 -4 11 -10z"/>
<path d="M3090 1050 c0 -5 5 -10 10 -10 6 0 10 5 10 10 0 6 -4 10 -10 10 -5 0
-10 -4 -10 -10z"/>
<path d="M3218 1033 c7 -3 16 -2 19 1 4 3 -2 6 -13 5 -11 0 -14 -3 -6 -6z"/>
<path d="M2046 1001 c-4 -7 -5 -15 -2 -18 9 -9 19 4 14 18 -4 11 -6 11 -12 0z"/>
<path d="M1306 981 c-3 -5 1 -11 9 -15 9 -3 15 0 15 9 0 16 -16 20 -24 6z"/>
<path d="M1420 970 c0 -13 28 -25 38 -16 3 4 0 11 -8 16 -20 13 -30 12 -30 0z"/>
<path d="M1525 950 c3 -5 16 -10 28 -9 21 0 21 1 2 9 -28 12 -37 12 -30 0z"/>
<path d="M1490 940 c8 -5 20 -10 25 -10 6 0 3 5 -5 10 -8 5 -19 10 -25 10 -5
0 -3 -5 5 -10z"/>
<path d="M400 919 c0 -5 5 -7 10 -4 6 3 10 8 10 11 0 2 -4 4 -10 4 -5 0 -10
-5 -10 -11z"/>
<path d="M3135 909 c-10 -15 3 -25 16 -12 7 7 7 13 1 17 -6 3 -14 1 -17 -5z"/>
<path d="M80 900 c0 -5 5 -10 11 -10 5 0 7 5 4 10 -3 6 -8 10 -11 10 -2 0 -4
-4 -4 -10z"/>
<path d="M3320 901 c0 -16 28 -20 34 -5 4 9 -1 14 -14 14 -11 0 -20 -4 -20 -9z"/>
<path d="M410 889 c0 -5 -4 -7 -10 -4 -5 3 -10 1 -10 -5 0 -6 10 -8 28 -3 15
3 35 6 45 5 9 0 15 3 12 9 -8 13 -65 12 -65 -2z"/>
<path d="M2877 869 c7 -7 15 -10 18 -7 3 3 -2 9 -12 12 -14 6 -15 5 -6 -5z"/>
<path d="M1600 770 c0 -5 4 -10 9 -10 6 0 13 5 16 10 3 6 -1 10 -9 10 -9 0
-16 -4 -16 -10z"/>
<path d="M3005 760 c3 -5 8 -10 11 -10 2 0 4 5 4 10 0 6 -5 10 -11 10 -5 0 -7
-4 -4 -10z"/>
<path d="M2980 740 c0 -5 5 -10 10 -10 6 0 10 5 10 10 0 6 -4 10 -10 10 -5 0
-10 -4 -10 -10z"/>
<path d="M190 650 c0 -5 5 -10 10 -10 6 0 10 5 10 10 0 6 -4 10 -10 10 -5 0
-10 -4 -10 -10z"/>
<path d="M3147 593 c-4 -3 -7 -13 -7 -20 0 -10 11 -13 38 -11 20 2 35 7 32 13
-3 6 -10 10 -17 10 -6 0 -15 4 -19 8 -9 9 -19 9 -27 0z"/>
<path d="M2595 570 c-3 -5 -1 -10 4 -10 6 0 11 5 11 10 0 6 -2 10 -4 10 -3 0
-8 -4 -11 -10z"/>
<path d="M2915 570 c-3 -5 -1 -10 4 -10 6 0 11 5 11 10 0 6 -2 10 -4 10 -3 0
-8 -4 -11 -10z"/>
<path d="M3240 570 c0 -5 5 -10 10 -10 6 0 10 5 10 10 0 6 -4 10 -10 10 -5 0
-10 -4 -10 -10z"/>
<path d="M110 560 c-12 -7 -12 -12 -2 -22 9 -9 15 -9 24 0 16 16 -2 34 -22 22z"/>
<path d="M21 544 c0 -11 3 -14 6 -6 3 7 2 16 -1 19 -3 4 -6 -2 -5 -13z"/>
<path d="M1700 525 c0 -9 5 -15 11 -13 6 2 11 8 11 13 0 5 -5 11 -11 13 -6 2
-11 -4 -11 -13z"/>
<path d="M1310 520 c0 -5 5 -10 10 -10 6 0 10 5 10 10 0 6 -4 10 -10 10 -5 0
-10 -4 -10 -10z"/>
<path d="M1396 481 c-3 -5 1 -14 10 -21 11 -10 18 -10 27 -1 9 9 9 14 -3 21
-19 12 -27 12 -34 1z"/>
<path d="M2028 478 c9 -9 15 -9 24 0 9 9 7 12 -12 12 -19 0 -21 -3 -12 -12z"/>
<path d="M2090 470 c0 -5 7 -10 15 -10 8 0 15 5 15 10 0 6 -7 10 -15 10 -8 0
-15 -4 -15 -10z"/>
<path d="M3824 460 c0 -11 4 -20 8 -20 4 0 8 9 8 20 0 11 -4 20 -8 20 -4 0 -8
-9 -8 -20z"/>
<path d="M1847 453 c-14 -13 -6 -23 18 -23 28 0 34 15 9 24 -19 7 -19 7 -27
-1z"/>
<path d="M1658 443 c7 -3 16 -2 19 1 4 3 -2 6 -13 5 -11 0 -14 -3 -6 -6z"/>
<path d="M1700 435 c0 -8 9 -15 20 -15 11 0 20 7 20 15 0 8 -9 15 -20 15 -11
0 -20 -7 -20 -15z"/>
<path d="M1780 440 c0 -5 9 -10 20 -10 11 0 20 5 20 10 0 6 -9 10 -20 10 -11
0 -20 -4 -20 -10z"/>
<path d="M2046 415 c-3 -9 0 -15 9 -15 9 0 12 6 9 15 -4 8 -7 15 -9 15 -2 0
-5 -7 -9 -15z"/>
<path d="M2102 419 c2 -6 8 -10 13 -10 5 0 11 4 13 10 2 6 -4 11 -13 11 -9 0
-15 -5 -13 -11z"/>
<path d="M3120 400 c0 -5 5 -10 10 -10 6 0 10 5 10 10 0 6 -4 10 -10 10 -5 0
-10 -4 -10 -10z"/>
<path d="M2458 384 c0 -5 -2 -15 -2 -23 -1 -8 -11 -16 -24 -17 -16 -3 -22 1
-22 16 0 26 -26 26 -33 0 -3 -11 -1 -20 4 -20 5 0 8 -3 8 -7 -3 -19 3 -20 39
-11 44 12 82 15 181 17 99 1 86 11 -17 12 -63 1 -82 4 -87 16 -3 9 -8 13 -12
10 -3 -4 -12 -2 -20 4 -7 6 -14 8 -15 3z"/>
<path d="M2808 273 c7 -3 16 -2 19 1 4 3 -2 6 -13 5 -11 0 -14 -3 -6 -6z"/>
</g>
</svg>
